<?xml version="1.0" standalone="no"?>
<!DOCTYPE svg PUBLIC "-//W3C//DTD SVG 20010904//EN"
 "http://www.w3.org/TR/2001/REC-SVG-20010904/DTD/svg10.dtd">
<svg version="1.0" xmlns="http://www.w3.org/2000/svg"
 width="573.000000pt" height="462.000000pt" viewBox="0 0 573.000000 462.000000"
 preserveAspectRatio="xMidYMid meet">

<g transform="translate(0.000000,462.000000) scale(0.100000,-0.100000)"
fill="#000000" stroke="none">
<path d="M2625 4550 c-27 -4 -95 -9 -150 -9 -77 -1 -116 -7 -175 -26 -41 -14
-111 -32 -155 -41 -44 -10 -87 -23 -95 -29 -8 -7 -26 -16 -40 -19 -33 -10 -47
-16 -172 -75 -59 -28 -116 -51 -128 -51 -11 0 -20 -5 -20 -11 0 -5 -15 -16
-34 -24 -19 -8 -36 -18 -38 -23 -1 -4 -24 -20 -50 -35 -26 -15 -53 -33 -60
-40 -7 -7 -32 -21 -55 -31 -24 -11 -43 -25 -43 -33 0 -7 -7 -13 -15 -13 -8 0
-15 -4 -15 -10 0 -5 -14 -17 -30 -25 -17 -9 -35 -27 -40 -40 -5 -14 -26 -33
-46 -42 -22 -10 -44 -32 -53 -50 -9 -17 -26 -34 -39 -38 -14 -3 -29 -19 -38
-40 -8 -19 -21 -35 -29 -35 -13 0 -65 -59 -65 -73 0 -10 -39 -47 -48 -47 -5 0
-14 -11 -20 -25 -6 -14 -17 -25 -24 -25 -7 0 -21 -20 -31 -44 -10 -24 -25 -47
-32 -50 -8 -3 -21 -21 -29 -41 -8 -19 -20 -35 -25 -35 -6 0 -11 -11 -11 -25 0
-14 -9 -30 -20 -37 -11 -7 -27 -35 -36 -63 -9 -27 -25 -59 -35 -71 -11 -11
-19 -31 -19 -45 0 -13 -11 -43 -24 -66 -14 -23 -32 -74 -42 -113 -9 -39 -21
-73 -25 -76 -5 -3 -9 -21 -9 -40 0 -19 -4 -42 -9 -52 -39 -73 -55 -221 -55
-497 0 -253 13 -402 40 -464 13 -29 24 -62 24 -73 0 -33 51 -201 76 -250 13
-27 24 -57 24 -67 0 -11 7 -27 16 -35 9 -9 20 -31 25 -50 5 -18 20 -49 34 -67
14 -19 28 -42 31 -51 4 -10 10 -18 15 -18 5 0 9 -9 9 -21 0 -12 14 -34 30 -49
17 -15 30 -35 30 -43 0 -8 7 -20 15 -27 8 -7 15 -18 15 -24 1 -17 56 -74 75
-78 10 -1 25 -17 35 -35 9 -18 33 -47 53 -64 21 -18 37 -38 37 -45 0 -7 16
-21 35 -33 19 -11 35 -27 35 -35 0 -9 10 -21 22 -27 26 -14 48 -34 48 -44 0
-9 42 -44 53 -45 5 0 26 -17 47 -38 48 -46 95 -82 109 -82 6 0 11 -4 11 -10 0
-5 27 -23 59 -40 33 -16 63 -34 66 -40 4 -6 35 -24 68 -40 34 -15 72 -38 84
-49 13 -12 37 -24 55 -28 30 -6 136 -49 180 -73 10 -6 26 -10 36 -10 10 0 22
-3 26 -7 10 -10 78 -33 99 -33 9 0 36 -9 60 -19 44 -20 66 -25 212 -41 50 -6
129 -15 176 -20 111 -13 314 -13 432 0 293 32 353 41 394 63 18 9 42 17 55 17
21 0 108 30 150 51 10 5 23 9 28 9 6 0 38 13 72 30 33 16 67 30 75 30 18 0 93
41 93 50 0 4 21 15 48 25 26 10 63 31 82 46 19 15 45 30 58 34 12 3 22 11 22
16 0 5 7 9 16 9 9 0 31 15 49 34 18 19 42 37 54 41 11 3 21 11 21 16 0 14 50
59 66 59 18 0 74 49 74 65 0 8 8 16 18 20 11 3 33 23 50 44 18 22 41 42 52 46
11 3 20 13 20 21 0 8 15 28 34 44 19 17 36 41 40 53 3 13 17 29 31 37 13 7 28
23 31 34 4 12 22 38 40 59 19 20 34 43 34 50 0 8 9 22 20 32 11 10 20 27 20
37 0 10 9 22 21 26 24 9 45 44 93 152 6 14 14 27 17 30 4 3 16 30 29 60 12 30
26 63 31 72 5 10 9 25 9 33 0 9 11 40 24 68 13 29 29 86 36 127 6 41 21 107
33 145 19 65 20 95 21 390 0 298 -2 324 -21 385 -12 36 -24 90 -28 120 -7 62
-20 107 -47 166 -10 22 -18 44 -18 49 0 20 -55 151 -76 183 -13 19 -26 49 -30
68 -3 19 -14 39 -24 44 -10 5 -21 23 -25 39 -4 20 -13 31 -28 33 -15 2 -26 14
-32 35 -6 18 -21 46 -33 62 -12 17 -22 32 -22 35 0 3 -10 16 -22 30 -37 39
-48 55 -48 65 0 5 -8 12 -17 15 -10 3 -27 24 -37 46 -11 22 -23 40 -27 40 -9
0 -69 53 -69 61 0 12 -112 119 -124 119 -7 0 -18 10 -25 23 -7 13 -25 31 -39
40 -15 9 -45 32 -67 52 -58 52 -63 55 -78 55 -8 0 -28 13 -43 28 -16 16 -43
34 -61 41 -17 7 -34 19 -37 27 -3 8 -12 14 -19 14 -8 0 -22 9 -32 20 -10 11
-28 20 -41 20 -13 0 -25 4 -28 9 -3 5 -18 12 -33 16 -15 3 -30 10 -33 14 -6 8
-166 81 -179 81 -5 0 -26 8 -48 19 -53 26 -99 39 -163 47 -30 4 -59 10 -65 14
-30 21 -94 34 -210 41 -206 14 -495 18 -550 9z m585 -85 c30 -3 70 -13 88 -21
18 -9 56 -20 85 -25 97 -19 107 -21 107 -30 0 -5 16 -9 35 -9 19 0 35 -4 35
-9 0 -5 15 -12 33 -15 19 -4 56 -17 83 -30 27 -13 64 -26 82 -29 19 -4 50 -20
70 -35 21 -16 58 -36 85 -46 26 -10 53 -24 60 -31 7 -7 42 -28 78 -46 35 -18
66 -37 68 -42 7 -18 46 -47 63 -47 10 0 22 -8 25 -17 12 -30 36 -53 70 -64 18
-6 33 -17 33 -24 0 -7 20 -26 45 -42 24 -15 44 -34 45 -42 0 -16 24 -37 58
-51 12 -5 26 -18 30 -29 4 -10 28 -43 55 -72 58 -66 67 -77 67 -82 0 -3 16
-22 35 -43 19 -21 35 -46 35 -55 0 -9 11 -27 26 -40 14 -13 40 -57 59 -96 19
-40 40 -73 47 -73 14 0 63 -87 73 -130 7 -26 36 -91 45 -100 7 -7 28 -82 46
-165 8 -38 24 -97 34 -130 29 -92 40 -210 40 -424 0 -202 -16 -359 -44 -422
-8 -19 -20 -68 -27 -109 -7 -41 -19 -86 -26 -100 -7 -14 -13 -30 -13 -36 0 -6
-11 -31 -24 -56 -13 -25 -27 -60 -31 -79 -4 -19 -16 -46 -26 -60 -10 -14 -21
-37 -24 -51 -4 -14 -15 -28 -26 -31 -11 -3 -29 -28 -43 -61 -14 -31 -30 -56
-35 -56 -6 0 -11 -8 -11 -19 0 -10 -10 -29 -23 -42 -12 -13 -28 -37 -35 -52
-7 -16 -21 -31 -32 -34 -12 -3 -20 -14 -20 -27 0 -12 -15 -34 -35 -50 -19 -16
-35 -35 -35 -43 0 -7 -6 -13 -14 -13 -7 0 -21 -12 -31 -28 -19 -31 -165 -172
-177 -172 -5 0 -28 -20 -51 -45 -24 -25 -49 -45 -57 -45 -13 0 -30 -13 -72
-58 -12 -12 -27 -22 -34 -22 -7 0 -29 -16 -48 -35 -20 -19 -40 -35 -45 -35 -8
0 -41 -15 -91 -41 -8 -5 -34 -19 -57 -33 -23 -13 -56 -27 -73 -31 -17 -4 -34
-13 -37 -21 -3 -8 -16 -14 -28 -14 -13 0 -25 -5 -27 -11 -3 -9 -93 -38 -173
-56 -16 -3 -32 -9 -35 -13 -7 -8 -95 -31 -145 -36 -22 -3 -49 -9 -60 -14 -93
-41 -650 -50 -831 -14 -44 9 -90 18 -104 21 -57 10 -157 36 -185 48 -41 17
-92 32 -137 40 -21 3 -43 11 -50 18 -19 17 -100 57 -116 57 -17 0 -69 29 -96
53 -11 9 -27 17 -36 17 -9 0 -25 7 -36 15 -10 8 -27 15 -36 15 -9 0 -30 16
-45 35 -17 22 -37 35 -51 35 -12 0 -25 7 -29 16 -11 29 -50 64 -71 64 -33 0
-52 11 -52 31 0 11 -17 28 -45 44 -24 15 -47 35 -50 45 -3 11 -24 29 -45 41
-22 13 -42 31 -46 41 -3 10 -10 18 -15 18 -5 0 -9 7 -9 15 0 8 -4 15 -9 15
-15 0 -61 49 -61 65 0 8 -4 15 -9 15 -14 0 -55 44 -68 73 -7 15 -17 27 -22 27
-5 0 -11 9 -14 20 -3 11 -12 20 -21 20 -9 0 -16 7 -16 15 0 8 -6 15 -13 15
-13 0 -19 10 -56 90 -9 19 -18 37 -21 40 -19 19 -49 71 -61 105 -7 22 -23 56
-35 75 -12 19 -27 53 -34 75 -7 22 -21 59 -31 83 -11 23 -19 58 -19 77 0 19
-4 35 -8 35 -8 0 -31 89 -51 200 -49 265 -32 672 38 890 11 36 21 77 21 92 0
15 4 29 9 32 5 4 22 45 38 94 15 48 36 95 46 104 9 10 17 25 17 34 0 8 11 32
25 52 14 20 25 43 25 51 0 7 11 24 25 37 14 13 25 32 25 43 0 11 9 25 19 30
10 6 24 24 29 41 6 16 18 30 26 30 8 0 27 20 41 44 14 24 32 47 40 50 8 3 15
12 15 21 0 8 6 15 14 15 7 0 19 13 25 29 7 15 25 38 42 50 16 12 29 28 29 36
0 8 5 15 12 15 15 0 58 40 58 54 0 6 10 16 22 21 13 6 32 25 43 42 11 18 31
36 44 39 14 4 40 24 60 46 19 21 42 38 51 38 8 0 30 16 49 35 19 19 39 35 46
35 7 0 18 7 25 15 7 8 21 15 31 15 11 0 28 9 40 21 12 12 44 31 73 44 29 13
74 37 101 54 27 17 57 31 66 31 9 0 47 14 84 30 37 17 75 30 86 30 10 0 19 5
19 10 0 6 11 10 25 10 14 0 33 4 43 9 28 14 87 31 108 31 10 0 43 9 72 20 29
11 74 20 100 21 26 1 58 5 72 9 27 9 591 5 680 -5z"/>
<path d="M3500 3789 c-52 -4 -124 -14 -160 -23 -36 -9 -84 -16 -106 -16 -23 0
-61 -7 -84 -15 -23 -8 -59 -15 -79 -15 -20 -1 -61 -9 -91 -20 -30 -11 -67 -19
-81 -20 -15 0 -46 -9 -70 -20 -24 -11 -55 -20 -69 -20 -34 -1 -122 -31 -197
-69 -34 -17 -71 -31 -82 -31 -11 0 -28 -11 -39 -25 -22 -27 -60 -45 -98 -45
-15 0 -24 -6 -24 -15 0 -8 -4 -15 -8 -15 -5 0 -19 -9 -32 -20 -13 -11 -29 -20
-37 -20 -7 0 -32 -17 -56 -37 -43 -38 -65 -54 -103 -74 -12 -6 -27 -21 -33
-33 -7 -11 -25 -29 -42 -39 -17 -9 -33 -26 -36 -37 -3 -11 -9 -20 -13 -20 -12
0 -60 -45 -60 -57 0 -6 -6 -13 -13 -16 -18 -7 -137 -166 -137 -183 0 -8 -4
-14 -9 -14 -5 0 -23 -29 -41 -66 -17 -36 -37 -67 -45 -70 -8 -3 -17 -16 -21
-27 -7 -24 -24 -64 -59 -142 -13 -27 -31 -68 -40 -90 -9 -22 -20 -49 -25 -60
-5 -11 -12 -39 -15 -62 -4 -24 -11 -43 -16 -43 -5 0 -9 -6 -9 -13 0 -7 -13
-48 -30 -90 -18 -47 -30 -97 -30 -125 0 -26 -5 -63 -10 -83 -67 -241 -93 -919
-36 -951 9 -5 16 -16 16 -23 0 -8 4 -15 10 -15 5 0 12 -11 16 -25 10 -40 92
-93 180 -115 96 -25 213 -26 544 -5 275 18 437 38 480 60 16 8 43 15 60 15 17
0 43 6 58 14 15 7 48 17 75 20 26 4 59 14 75 22 15 7 37 14 49 14 13 0 37 9
55 20 18 11 42 20 53 20 28 0 118 36 165 65 22 14 46 25 54 25 8 0 35 16 61
35 25 20 60 39 78 42 18 4 40 17 51 30 10 13 38 33 62 44 24 12 46 29 49 38 3
10 15 23 28 28 35 17 117 87 117 101 0 6 9 12 21 12 13 0 23 10 30 29 6 16 21
37 35 46 13 8 35 33 49 54 13 22 36 51 50 65 14 14 25 30 25 37 0 6 8 19 19
28 10 9 30 41 45 72 14 32 33 62 41 69 8 7 15 20 15 30 0 10 6 23 14 29 8 7
18 26 21 42 4 16 10 31 15 34 13 8 40 66 40 85 0 9 16 47 35 86 19 38 35 79
35 92 0 12 4 30 9 40 5 9 19 58 31 107 12 50 26 108 32 130 25 103 40 214 50
378 7 97 15 177 20 177 4 0 8 88 8 195 0 110 -4 195 -9 195 -5 0 -12 22 -16
49 -4 32 -16 59 -31 76 -13 14 -24 29 -24 33 -1 4 -12 16 -27 27 -14 11 -33
28 -41 38 -9 9 -26 17 -39 17 -12 0 -26 7 -31 16 -5 8 -26 19 -48 24 -46 11
-437 10 -574 -1z m494 -196 c-62 -70 -79 -94 -109 -160 -18 -39 -33 -41 -130
-13 -38 11 -93 20 -120 20 -28 0 -83 -9 -123 -20 -39 -11 -83 -20 -96 -20 -14
0 -38 -11 -54 -25 -17 -14 -34 -25 -39 -25 -6 0 -22 -11 -37 -25 -15 -14 -33
-25 -41 -25 -7 0 -25 -15 -39 -32 -15 -18 -32 -40 -39 -48 -47 -55 -79 -114
-102 -186 -15 -46 -30 -86 -34 -88 -4 -3 -25 1 -47 9 -27 10 -87 14 -192 15
-173 0 -245 -14 -280 -55 -13 -15 -33 -25 -48 -25 -17 0 -28 -6 -31 -19 -3
-11 -24 -32 -46 -48 -23 -15 -45 -32 -49 -38 -3 -5 -23 -28 -43 -49 -20 -22
-39 -52 -42 -67 -3 -15 -14 -37 -24 -48 -11 -11 -19 -27 -19 -35 0 -8 -9 -38
-20 -66 -28 -70 -28 -218 0 -275 11 -22 19 -53 20 -70 0 -29 -3 -31 -78 -53
-42 -13 -84 -28 -92 -33 -8 -5 -25 -13 -38 -19 -31 -13 -41 -22 -138 -120 -56
-56 -84 -92 -84 -107 0 -13 -4 -23 -10 -23 -5 0 -10 -8 -10 -18 0 -10 -11 -52
-25 -92 -30 -87 -35 -230 -11 -283 20 -43 35 -104 28 -111 -3 -3 -14 -6 -24
-6 -18 0 -89 -46 -96 -62 -2 -5 -13 -8 -24 -8 -11 0 -36 -17 -54 -37 l-34 -37
0 140 c1 273 27 523 80 784 5 25 13 70 18 100 6 30 22 77 36 105 15 27 30 70
33 95 3 25 14 56 23 70 17 24 70 149 70 164 0 4 9 17 21 29 11 12 28 40 38 62
10 22 28 49 40 59 11 11 21 25 21 33 0 7 4 13 10 13 5 0 17 16 26 35 9 19 20
35 25 35 5 0 9 7 9 15 0 18 39 65 54 65 6 0 17 13 24 30 7 16 22 32 33 35 11
4 24 18 29 31 5 13 16 24 24 24 9 0 20 9 26 20 6 11 25 27 43 36 18 9 42 29
55 45 13 16 30 29 38 29 8 0 23 8 33 18 36 32 46 38 121 75 41 21 93 48 114
62 22 13 55 26 75 30 19 4 53 19 76 35 30 21 57 30 109 35 41 4 93 18 125 33
31 14 96 31 146 39 108 16 175 28 235 42 72 18 239 28 472 30 l217 1 -25 -27z
m137 -503 c-12 -256 -20 -328 -47 -430 -17 -63 -41 -173 -54 -243 -5 -27 -13
-54 -18 -60 -5 -7 -20 -43 -33 -82 -13 -38 -30 -76 -36 -83 -7 -7 -13 -18 -13
-23 0 -12 -50 -122 -59 -129 -3 -3 -12 -18 -20 -35 -7 -16 -17 -37 -22 -45 -5
-8 -13 -25 -18 -36 -5 -12 -16 -24 -24 -27 -8 -3 -18 -20 -22 -37 -4 -17 -13
-34 -21 -37 -8 -3 -14 -12 -14 -19 0 -8 -6 -17 -14 -20 -8 -3 -16 -14 -19 -25
-3 -10 -12 -19 -20 -19 -8 0 -17 -10 -21 -23 -6 -25 -68 -97 -84 -97 -5 0 -12
-8 -14 -17 -3 -10 -18 -25 -34 -33 -16 -8 -35 -23 -42 -32 -7 -10 -40 -39 -74
-65 -58 -45 -88 -64 -148 -95 -14 -7 -39 -24 -56 -39 -17 -14 -50 -29 -73 -33
-22 -3 -41 -10 -41 -14 0 -18 -70 -51 -124 -57 -35 -4 -75 -17 -98 -31 -21
-13 -62 -29 -90 -34 -68 -14 -124 -29 -168 -46 -85 -33 -318 -55 -635 -61
l-310 -6 27 22 c14 11 30 21 35 21 4 0 21 12 36 26 29 27 74 44 116 44 13 0
47 11 76 25 29 14 83 30 121 36 97 14 111 17 126 32 24 23 67 47 85 47 9 0 27
10 38 23 11 13 46 42 77 65 32 24 65 54 74 67 9 14 23 25 30 25 8 0 17 14 21
31 3 19 15 35 30 42 13 6 26 21 29 34 4 13 9 23 13 23 4 0 16 26 27 58 10 31
22 59 25 62 3 3 14 37 24 75 10 39 22 75 25 80 4 6 11 37 15 70 4 33 10 65 15
70 4 6 11 20 15 33 3 12 17 34 31 49 13 14 24 33 24 42 0 21 95 121 114 121 9
0 20 9 26 20 6 11 16 20 22 20 6 0 26 16 45 35 21 21 44 35 58 35 14 0 25 5
25 11 0 15 57 36 120 44 74 9 179 35 212 51 15 8 36 14 48 14 11 0 20 5 20 10
0 6 4 10 10 10 5 0 34 16 64 35 30 19 60 35 65 35 6 0 16 9 23 20 7 11 21 20
30 20 10 0 18 6 18 14 0 8 11 17 24 20 16 4 29 18 37 41 7 19 18 35 24 35 21
1 95 97 95 124 0 9 7 16 15 16 9 0 15 9 15 24 0 13 11 46 25 73 14 26 32 84
42 128 9 49 23 87 34 97 13 10 19 30 19 56 0 45 34 130 56 139 8 3 14 9 14 14
0 6 8 22 18 37 l17 26 4 -69 c2 -39 -2 -185 -8 -325z m-370 144 c8 -8 23 -14
32 -14 13 0 17 -9 17 -34 0 -19 -4 -37 -9 -40 -10 -7 -51 -127 -51 -151 0 -8
-11 -20 -24 -26 -15 -7 -26 -23 -30 -41 -3 -18 -14 -32 -25 -35 -11 -3 -21
-17 -24 -33 -4 -18 -19 -36 -44 -51 -20 -13 -45 -31 -55 -41 -10 -10 -25 -18
-33 -18 -7 0 -18 -6 -22 -13 -27 -44 -139 -86 -173 -64 -10 6 -24 28 -31 49
-7 21 -16 38 -21 38 -4 0 -17 9 -28 20 -41 41 -19 225 30 255 5 3 10 16 10 28
0 13 15 34 37 52 20 17 45 38 55 48 10 9 22 17 26 17 5 0 17 9 27 20 10 11 28
20 40 20 11 0 26 5 31 10 31 31 232 34 265 4z m-818 -471 c33 -9 70 -26 84
-37 40 -33 103 -98 103 -107 0 -4 -13 -10 -30 -14 -16 -4 -32 -11 -35 -16 -4
-5 -13 -9 -21 -9 -8 0 -40 -16 -70 -35 -30 -19 -60 -35 -67 -35 -8 0 -24 -11
-37 -25 -13 -14 -28 -25 -34 -25 -13 0 -112 -95 -141 -135 -11 -15 -31 -39
-44 -53 -25 -28 -71 -118 -71 -139 0 -7 -10 -27 -23 -46 l-22 -33 -25 23 c-14
13 -30 23 -36 23 -13 0 -44 43 -44 62 0 6 -8 21 -19 32 -45 51 -61 172 -36
282 9 43 22 83 29 89 6 6 24 32 39 56 16 25 38 49 50 54 12 6 26 19 31 31 10
22 92 58 167 74 57 12 178 4 252 -17z m-568 -823 c10 -11 42 -32 72 -47 55
-28 66 -50 38 -73 -8 -7 -15 -23 -15 -35 0 -12 -9 -34 -20 -48 -11 -14 -20
-31 -20 -39 0 -7 -16 -30 -35 -51 -19 -21 -35 -41 -35 -45 0 -4 -22 -23 -50
-42 -27 -19 -52 -43 -55 -52 -4 -10 -15 -18 -26 -18 -10 0 -19 -5 -19 -10 0
-6 -11 -15 -25 -20 -14 -5 -25 -14 -25 -20 0 -5 -9 -10 -19 -10 -11 0 -22 -4
-25 -9 -6 -9 -18 -11 -124 -29 l-53 -9 -20 38 c-25 49 -28 224 -4 255 8 10 15
26 15 35 0 9 9 24 20 34 11 10 20 31 20 47 0 18 5 28 15 28 8 0 29 18 46 40
18 22 38 40 45 40 7 0 19 6 26 13 24 24 112 46 184 46 59 1 74 -2 89 -19z"/>
</g>
</svg>
