<?xml version="1.0" standalone="no"?>
<!DOCTYPE svg PUBLIC "-//W3C//DTD SVG 20010904//EN"
 "http://www.w3.org/TR/2001/REC-SVG-20010904/DTD/svg10.dtd">
<svg version="1.0" xmlns="http://www.w3.org/2000/svg"
 width="512.000000pt" height="512.000000pt" viewBox="0 0 512.000000 512.000000"
 preserveAspectRatio="xMidYMid meet">

<g transform="translate(0.000000,512.000000) scale(0.100000,-0.100000)"
fill="#000000" stroke="none">
<path d="M2330 5110 c-436 -45 -829 -184 -1182 -419 -630 -419 -1031 -1071
-1129 -1836 -16 -127 -16 -460 0 -590 51 -407 191 -787 409 -1116 655 -984
1883 -1393 2997 -998 156 56 403 179 541 271 275 184 518 422 706 693 241 347
399 786 439 1219 14 157 7 448 -16 596 -151 979 -823 1770 -1760 2070 -120 38
-272 73 -415 95 -124 19 -468 28 -590 15z m446 -291 c269 -26 541 -105 782
-224 234 -116 392 -227 575 -404 367 -354 593 -795 674 -1311 24 -160 24 -491
-1 -645 -42 -257 -105 -460 -212 -675 -118 -237 -230 -397 -413 -583 -352
-361 -778 -579 -1296 -663 -154 -26 -496 -26 -650 0 -474 77 -877 268 -1203
569 -299 276 -508 601 -630 978 -386 1193 266 2471 1459 2857 293 96 614 131
915 101z"/>
<path d="M2800 4243 c-155 -39 -326 -158 -427 -295 l-34 -47 -94 6 c-114 7
-166 -9 -219 -67 -46 -51 -66 -121 -73 -251 -8 -159 24 -300 94 -412 l23 -37
-397 -613 c-218 -336 -411 -641 -429 -675 -48 -95 -69 -189 -69 -312 1 -125
19 -202 74 -315 173 -351 605 -495 958 -318 92 46 179 116 234 190 24 32 219
328 433 658 l389 601 111 0 c192 0 372 66 499 183 89 81 88 213 -3 342 l-21
29 46 92 c63 128 86 226 87 363 1 120 -10 171 -49 223 -25 34 -90 71 -159 92
l-41 12 -7 67 c-13 144 -86 327 -148 374 -55 41 -100 50 -222 44 -75 -3 -138
-13 -193 -29 l-82 -25 -43 44 c-76 79 -145 100 -238 76z m111 -250 c58 -63
105 -137 132 -210 17 -47 21 -80 22 -173 l0 -115 75 -1 c43 0 97 -8 128 -18
62 -21 65 -34 28 -139 -40 -113 -118 -217 -203 -270 -168 -105 -432 -99 -658
16 -197 99 -305 310 -274 534 6 43 13 80 15 82 11 11 140 -20 200 -48 37 -17
68 -31 69 -31 2 0 7 15 10 33 21 95 112 223 208 291 67 48 161 96 188 96 9 0
36 -21 60 -47z m558 -72 c20 -47 55 -181 49 -186 -2 -1 -43 -7 -93 -13 -49 -7
-102 -15 -116 -18 -25 -6 -27 -3 -43 61 -9 36 -25 89 -36 118 -11 28 -16 54
-12 58 13 13 96 27 163 28 l67 1 21 -49z m136 -412 c32 -6 83 -20 112 -31 l53
-19 0 -88 c0 -160 -57 -307 -160 -409 l-59 -59 44 -33 c49 -37 93 -88 119
-138 17 -32 17 -35 0 -53 -29 -32 -154 -88 -234 -105 -132 -28 -266 1 -387 85
-75 51 -152 129 -132 134 8 3 41 12 74 22 189 55 348 197 435 389 39 87 73
230 66 278 -7 43 -10 42 69 27z m-1287 -595 c38 -22 61 -41 58 -49 -9 -24
-946 -1470 -954 -1473 -13 -4 -32 94 -32 168 0 81 28 179 73 254 18 30 194
304 392 609 344 532 361 555 380 542 11 -8 48 -31 83 -51z m322 -115 c43 -9
55 -17 80 -54 17 -24 30 -46 30 -50 0 -11 -980 -1528 -1004 -1554 -33 -36 -62
-44 -99 -24 -83 43 -106 77 -87 129 19 48 1003 1564 1016 1564 7 0 36 -5 64
-11z m347 -322 l71 -49 -380 -586 c-211 -327 -400 -608 -426 -635 -80 -82
-178 -133 -291 -151 -34 -5 -42 -4 -38 7 3 7 200 314 437 683 238 368 453 700
477 737 40 62 46 67 62 55 10 -7 50 -35 88 -61z"/>
</g>
</svg>
