<?xml version="1.0" standalone="no"?>
<!DOCTYPE svg PUBLIC "-//W3C//DTD SVG 20010904//EN"
 "http://www.w3.org/TR/2001/REC-SVG-20010904/DTD/svg10.dtd">
<svg version="1.0" xmlns="http://www.w3.org/2000/svg"
 width="512.000000pt" height="512.000000pt" viewBox="0 0 512.000000 512.000000"
 preserveAspectRatio="xMidYMid meet">

<g transform="translate(0.000000,512.000000) scale(0.100000,-0.100000)"
fill="#000000" stroke="none">
<path d="M2331 5110 c-586 -57 -1123 -305 -1550 -715 -238 -228 -444 -529
-574 -835 -206 -486 -256 -1041 -141 -1560 108 -485 362 -936 721 -1281 323
-310 727 -535 1143 -638 569 -140 1125 -95 1660 134 276 118 555 309 779 534
396 397 640 884 728 1451 25 164 25 558 -1 725 -86 558 -330 1046 -720 1438
-395 397 -883 643 -1441 728 -150 23 -460 32 -604 19z m440 -290 c798 -79
1483 -553 1829 -1265 580 -1193 27 -2612 -1212 -3106 -140 -56 -320 -104 -485
-130 -182 -28 -473 -30 -648 -5 -614 90 -1154 411 -1514 899 -193 262 -331
567 -394 872 -37 176 -48 288 -48 486 1 866 484 1639 1266 2025 375 185 801
264 1206 224z"/>
<path d="M1881 4165 c-224 -51 -415 -164 -550 -327 -73 -88 -163 -262 -193
-373 -31 -117 -31 -356 0 -469 77 -279 194 -425 509 -638 327 -220 362 -270
477 -669 44 -156 73 -222 141 -324 125 -188 330 -335 550 -395 119 -33 311
-38 435 -12 298 61 554 267 680 546 98 216 106 502 19 726 -81 210 -199 345
-449 512 -353 236 -376 268 -490 643 -82 275 -154 403 -302 540 -120 110 -257
185 -423 231 -84 23 -320 28 -404 9z m299 -209 c210 -38 387 -157 502 -336 35
-55 60 -112 94 -220 112 -354 144 -431 225 -532 70 -88 147 -152 347 -285 265
-178 370 -305 422 -509 27 -105 27 -263 0 -368 -65 -255 -271 -462 -530 -532
-84 -23 -259 -23 -352 -1 -193 47 -369 177 -470 348 -21 34 -56 121 -78 193
-111 349 -146 433 -227 539 -61 79 -154 154 -356 290 -248 166 -343 274 -403
462 -38 117 -44 279 -15 395 31 125 91 237 175 327 180 193 416 274 666 229z"/>
<path d="M1941 3753 c-45 -22 -71 -67 -71 -123 0 -56 27 -101 73 -123 46 -22
79 -21 125 2 47 24 72 67 72 121 0 105 -104 170 -199 123z"/>
<path d="M1642 3370 c-70 -43 -92 -128 -49 -191 57 -86 178 -88 233 -4 77 118
-64 268 -184 195z"/>
<path d="M2115 3373 c-88 -23 -133 -133 -85 -210 51 -84 180 -83 236 2 24 37
23 109 -2 142 -39 52 -99 79 -149 66z"/>
</g>
</svg>
