<?xml version="1.0" standalone="no"?>
<!DOCTYPE svg PUBLIC "-//W3C//DTD SVG 20010904//EN"
 "http://www.w3.org/TR/2001/REC-SVG-20010904/DTD/svg10.dtd">
<svg version="1.0" xmlns="http://www.w3.org/2000/svg"
 width="512.000000pt" height="512.000000pt" viewBox="0 0 512.000000 512.000000"
 preserveAspectRatio="xMidYMid meet">

<g transform="translate(0.000000,512.000000) scale(0.100000,-0.100000)"
fill="#000000" stroke="none">
<path d="M2370 5114 c-19 -2 -78 -9 -130 -15 -791 -90 -1522 -586 -1924 -1305
-146 -262 -252 -587 -297 -914 -20 -143 -18 -527 4 -670 90 -586 331 -1065
738 -1467 372 -367 824 -606 1323 -697 1031 -190 2045 243 2622 1120 603 915
540 2139 -153 2999 -409 507 -974 829 -1633 930 -100 15 -472 28 -550 19z
m380 -174 c287 -25 536 -90 794 -206 599 -269 1070 -791 1279 -1414 191 -573
162 -1182 -84 -1733 -235 -527 -665 -960 -1189 -1198 -470 -213 -954 -268
-1470 -168 -207 41 -533 164 -703 265 -377 226 -652 495 -865 849 -471 780
-450 1771 53 2535 477 725 1333 1144 2185 1070z"/>
<path d="M1772 4546 c-34 -29 -121 -199 -157 -308 -45 -138 -58 -215 -58 -358
0 -161 19 -246 85 -373 47 -90 96 -146 156 -176 33 -17 41 -27 51 -67 26 -103
94 -199 181 -255 28 -18 50 -34 50 -36 0 -11 -61 -123 -67 -123 -4 0 -53 30
-110 68 -103 67 -104 68 -248 259 -151 201 -166 214 -222 196 -32 -11 -62 -62
-56 -96 3 -12 71 -110 151 -217 l147 -195 129 -87 c71 -48 133 -91 138 -96 5
-5 3 -32 -4 -61 -8 -37 -15 -50 -26 -46 -7 3 -107 61 -222 130 l-208 125 -201
0 c-205 0 -231 -4 -258 -39 -21 -27 -15 -79 12 -106 24 -25 26 -25 211 -25
l186 0 225 -135 c123 -74 228 -135 233 -135 9 0 25 -138 17 -147 -4 -3 -81 24
-172 61 -91 36 -173 66 -183 66 -9 0 -86 -23 -169 -51 -185 -61 -219 -92 -181
-162 31 -58 56 -59 221 -5 l128 41 222 -88 c285 -114 300 -129 160 -164 -49
-12 -105 -26 -125 -32 -35 -9 -44 -22 -188 -260 -160 -267 -170 -294 -130
-337 11 -12 31 -24 45 -28 51 -13 74 12 214 246 l136 224 150 38 c83 20 155
37 162 38 9 0 11 -17 6 -63 -8 -89 16 -157 76 -217 l46 -45 -17 -50 c-21 -61
-22 -117 -3 -170 8 -22 15 -41 15 -42 0 -2 -23 -14 -51 -28 -76 -39 -127 -92
-223 -229 -103 -148 -118 -182 -118 -261 0 -73 18 -119 69 -175 90 -101 242
-119 352 -41 l28 20 34 -23 c93 -62 205 -62 298 0 l34 23 28 -20 c109 -77 262
-60 351 39 50 56 70 105 70 177 1 79 -15 112 -118 261 -96 137 -147 190 -223
229 -28 14 -51 26 -51 28 0 1 7 20 15 42 19 53 18 109 -3 169 l-17 48 46 48
c61 62 84 129 76 217 -5 46 -3 63 6 63 7 0 80 -17 162 -38 l150 -38 136 -224
c158 -263 179 -282 248 -224 55 46 48 64 -119 343 l-151 250 -47 14 c-26 8
-82 22 -124 32 -130 31 -111 48 170 160 l223 89 127 -42 c164 -54 189 -53 220
5 38 70 4 101 -181 162 -83 28 -160 51 -169 51 -10 0 -92 -30 -183 -66 -91
-37 -168 -64 -172 -61 -8 9 8 147 17 147 5 0 110 61 233 135 l225 135 186 0
c185 0 187 0 211 25 27 27 33 79 12 106 -27 35 -53 39 -257 39 l-202 0 -208
-125 c-114 -69 -214 -127 -222 -130 -11 -4 -18 8 -26 46 -7 29 -9 56 -4 61 5
5 67 48 138 96 l129 87 147 195 c80 107 148 205 151 217 6 34 -24 85 -56 96
-56 18 -71 5 -222 -196 -144 -191 -145 -192 -248 -259 -57 -38 -106 -68 -110
-68 -4 0 -21 28 -38 62 -29 58 -30 63 -14 73 99 57 184 165 212 268 15 51 22
61 55 78 89 45 175 176 220 335 28 100 31 307 5 422 -40 174 -142 409 -199
458 -35 29 -77 31 -109 5 -23 -18 -24 -26 -30 -183 -6 -174 -19 -226 -59 -248
-47 -25 -50 -15 -50 200 0 200 0 201 -25 225 -31 32 -75 32 -112 1 l-28 -24
-3 -206 c-3 -186 -5 -206 -20 -206 -69 -2 -86 -92 -61 -331 28 -276 79 -393
199 -449 46 -21 51 -27 45 -49 -13 -51 -108 -151 -143 -151 -6 0 -35 35 -65
78 -143 204 -205 252 -327 252 -122 0 -178 -43 -326 -249 -31 -45 -62 -81 -67
-81 -35 0 -129 101 -142 151 -6 22 -1 28 45 49 119 56 172 174 199 449 25 239
8 329 -61 331 -15 0 -17 20 -20 206 l-3 206 -28 24 c-37 31 -81 31 -112 -1
-25 -24 -25 -25 -25 -225 0 -215 -3 -225 -50 -200 -40 22 -53 74 -59 248 -6
157 -7 165 -30 183 -32 26 -74 24 -109 -5z m56 -529 c48 -51 99 -70 195 -75
l87 -4 -5 -67 c-20 -235 -48 -350 -92 -379 -17 -11 -46 -17 -79 -17 -45 0 -57
4 -84 30 -50 48 -99 159 -117 266 -13 78 -14 110 -5 189 7 52 17 113 23 134
l11 39 19 -44 c11 -24 32 -57 47 -72z m1551 36 c20 -99 23 -204 7 -293 -17
-97 -69 -210 -116 -255 -27 -26 -39 -30 -84 -30 -33 0 -62 6 -79 17 -44 29
-72 144 -92 379 l-5 67 87 4 c126 6 204 53 242 147 17 39 26 32 40 -36z m-772
-776 c26 -14 93 -99 173 -217 64 -96 144 -230 138 -234 -1 -2 -31 -13 -66 -24
-34 -11 -84 -35 -110 -53 -26 -18 -69 -48 -96 -66 -33 -23 -59 -33 -86 -33
-27 0 -53 10 -86 33 -27 18 -70 48 -96 66 -26 18 -76 42 -110 53 -35 11 -65
22 -67 24 -2 1 29 56 67 121 82 138 210 311 244 329 29 17 67 17 95 1z m-355
-653 c17 -9 62 -38 99 -65 89 -65 129 -81 209 -81 80 0 119 15 213 83 80 59
136 86 187 91 l35 3 22 -85 c30 -116 31 -272 3 -363 -21 -69 -89 -181 -120
-197 -25 -13 -655 -13 -680 0 -31 16 -99 128 -120 197 -27 88 -27 238 0 352
11 46 22 87 25 91 7 11 88 -6 127 -26z m463 -818 c32 -32 40 -69 25 -107 -22
-53 -42 -59 -180 -59 -138 0 -158 6 -180 59 -15 38 -7 75 25 107 23 23 30 24
155 24 125 0 132 -1 155 -24z m-97 -363 c75 -47 34 -168 -58 -168 -103 0 -133
131 -40 177 36 18 58 16 98 -9z m126 -369 c63 -22 112 -71 204 -206 85 -125
92 -160 43 -209 -53 -52 -125 -31 -165 50 -46 89 -129 92 -168 5 -10 -24 -30
-52 -45 -63 -53 -42 -117 -16 -151 63 -39 87 -120 84 -169 -6 -44 -81 -111
-101 -164 -49 -48 49 -41 85 37 200 124 179 157 208 265 231 67 14 256 5 313
-16z"/>
<path d="M2319 4541 c-36 -36 -37 -70 -3 -110 51 -61 144 -26 144 54 0 79 -84
112 -141 56z"/>
<path d="M2503 4178 c-47 -53 -35 -96 55 -180 46 -44 68 -58 91 -58 39 0 79
36 87 77 6 30 1 39 -66 108 -65 66 -78 75 -110 75 -25 0 -43 -7 -57 -22z"/>
<path d="M2515 3821 c-43 -26 -123 -115 -130 -144 -9 -36 18 -83 56 -96 25 -9
38 -8 65 5 39 18 120 103 134 138 13 36 -6 83 -41 101 -36 19 -48 19 -84 -4z"/>
<path d="M1152 3734 c-35 -14 -52 -41 -52 -79 0 -35 119 -161 161 -170 52 -12
98 28 99 83 0 28 -11 45 -66 102 -70 73 -95 84 -142 64z"/>
<path d="M3735 3742 c-38 -8 -65 -43 -65 -84 0 -34 8 -47 63 -103 34 -35 74
-67 89 -70 57 -14 118 44 104 99 -9 36 -109 142 -144 153 -15 5 -36 7 -47 5z"/>
<path d="M3969 3351 c-32 -33 -36 -58 -14 -100 18 -37 31 -41 121 -41 66 0 78
3 99 25 25 24 32 65 19 100 -11 28 -60 45 -129 45 -60 0 -69 -3 -96 -29z"/>
<path d="M1073 3192 c-30 -4 -63 -48 -63 -83 0 -15 11 -40 24 -55 70 -82 193
24 126 108 -20 26 -48 36 -87 30z"/>
<path d="M3785 3075 c-37 -36 -34 -86 7 -120 39 -33 81 -29 117 12 18 21 22
34 17 62 -11 70 -92 96 -141 46z"/>
<path d="M3965 2525 c-44 -43 -35 -77 42 -156 73 -76 98 -88 144 -69 35 15 49
37 49 81 0 27 -12 44 -68 101 -60 60 -73 68 -106 68 -26 0 -44 -7 -61 -25z"/>
<path d="M858 2440 c-32 -24 -39 -59 -22 -99 16 -39 47 -51 129 -51 52 0 69 4
89 23 40 34 43 77 11 115 -26 31 -29 32 -105 32 -62 0 -82 -4 -102 -20z"/>
<path d="M1229 1897 c-46 -35 -50 -88 -10 -128 29 -29 31 -29 140 -29 127 0
154 8 176 50 18 35 13 64 -18 98 -19 21 -28 22 -146 22 -83 -1 -131 -5 -142
-13z"/>
<path d="M3696 1889 c-32 -25 -36 -84 -7 -120 17 -21 30 -24 100 -27 78 -4 81
-3 111 26 32 32 37 60 18 95 -20 38 -40 46 -119 47 -62 0 -81 -4 -103 -21z"/>
<path d="M1154 1540 c-54 -22 -70 -91 -31 -135 48 -57 147 -20 147 55 0 56
-66 101 -116 80z"/>
<path d="M2979 1535 c-37 -20 -55 -67 -39 -104 15 -38 120 -138 153 -146 58
-15 118 54 97 111 -14 36 -95 120 -135 138 -40 19 -43 19 -76 1z"/>
<path d="M1905 1290 c-60 -61 -69 -74 -69 -106 0 -28 7 -42 28 -60 46 -40 79
-32 148 34 64 60 92 109 81 139 -13 38 -46 63 -83 63 -31 0 -45 -9 -105 -70z"/>
<path d="M3329 1061 c-56 -57 -23 -141 56 -141 79 0 112 84 56 141 -38 38 -74
38 -112 0z"/>
</g>
</svg>
