<?xml version="1.0" standalone="no"?>
<!DOCTYPE svg PUBLIC "-//W3C//DTD SVG 20010904//EN"
 "http://www.w3.org/TR/2001/REC-SVG-20010904/DTD/svg10.dtd">
<svg version="1.0" xmlns="http://www.w3.org/2000/svg"
 width="512.000000pt" height="512.000000pt" viewBox="0 0 512.000000 512.000000"
 preserveAspectRatio="xMidYMid meet">

<g transform="translate(0.000000,512.000000) scale(0.100000,-0.100000)"
fill="#000000" stroke="none">
<path d="M2315 5109 c-798 -81 -1501 -518 -1927 -1196 -487 -774 -516 -1777
-75 -2578 314 -571 826 -998 1446 -1205 272 -91 490 -125 801 -125 228 0 318
8 510 46 885 175 1636 842 1919 1704 93 282 126 493 126 805 0 301 -32 513
-116 775 -200 626 -634 1153 -1214 1472 -259 143 -560 243 -870 289 -122 18
-477 26 -600 13z m455 -230 c898 -82 1665 -673 1978 -1525 95 -260 136 -500
136 -799 0 -237 -14 -357 -69 -571 -214 -838 -876 -1491 -1710 -1687 -201 -48
-314 -60 -535 -60 -376 0 -693 74 -1028 238 -680 333 -1139 951 -1273 1710
-27 155 -37 449 -20 607 108 992 796 1790 1751 2028 249 62 515 83 770 59z"/>
<path d="M2818 4094 c-173 -42 -304 -175 -363 -369 -13 -44 -26 -92 -30 -107
l-5 -28 -134 0 c-209 0 -373 -35 -528 -112 -118 -58 -229 -170 -287 -288 -67
-137 -93 -257 -95 -433 l-1 -148 33 -30 c30 -27 38 -29 111 -29 269 0 546 113
672 274 l43 56 16 -58 c28 -101 78 -180 180 -283 103 -104 133 -120 194 -99
72 23 234 230 270 342 l17 55 59 -58 c32 -32 90 -75 127 -97 132 -78 339 -132
505 -132 72 0 80 2 110 29 l33 30 -1 148 c-2 176 -28 296 -95 433 -58 118
-169 230 -287 288 -155 77 -319 112 -528 112 -132 0 -134 0 -134 23 0 32 46
127 78 160 35 38 71 55 134 67 63 12 93 31 118 73 53 86 -17 199 -120 196 -19
0 -61 -7 -92 -15z"/>
<path d="M2142 2666 c-142 -115 -401 -196 -630 -197 l-90 0 -12 -57 c-6 -31
-14 -115 -17 -187 -23 -570 376 -1076 937 -1188 245 -49 504 -18 727 88 354
167 593 486 658 875 19 113 17 309 -5 412 l-12 56 -89 1 c-220 1 -475 79 -625
190 l-38 29 -57 -87 c-70 -106 -192 -225 -246 -240 -56 -16 -82 -13 -138 13
-64 30 -217 187 -265 273 -19 34 -37 62 -40 62 -3 0 -29 -20 -58 -43z"/>
</g>
</svg>
