<?xml version="1.0" standalone="no"?>
<!DOCTYPE svg PUBLIC "-//W3C//DTD SVG 20010904//EN"
 "http://www.w3.org/TR/2001/REC-SVG-20010904/DTD/svg10.dtd">
<svg version="1.0" xmlns="http://www.w3.org/2000/svg"
 width="512.000000pt" height="512.000000pt" viewBox="0 0 512.000000 512.000000"
 preserveAspectRatio="xMidYMid meet">

<g transform="translate(0.000000,512.000000) scale(0.100000,-0.100000)"
fill="#000000" stroke="none">
<path d="M2335 4850 c-1078 -120 -1902 -919 -2057 -1995 -19 -136 -16 -484 5
-625 159 -1018 928 -1787 1947 -1947 159 -24 499 -24 660 1 751 117 1381 572
1720 1241 111 218 179 427 222 680 29 175 32 513 5 685 -160 1016 -929 1788
-1938 1945 -122 19 -449 28 -564 15z m431 -121 c495 -48 972 -270 1321 -617
594 -588 802 -1448 542 -2235 -50 -153 -166 -389 -257 -527 -440 -662 -1227
-1036 -2018 -959 -557 54 -1082 325 -1442 744 -295 344 -478 771 -521 1219
-68 697 215 1401 744 1854 455 390 1046 578 1631 521z"/>
<path d="M1345 3476 c-196 -91 -378 -426 -392 -723 l-6 -111 -93 -4 c-102 -3
-129 -16 -171 -78 -63 -92 5 -224 120 -237 l46 -5 57 -232 c31 -127 65 -249
76 -270 33 -64 103 -131 171 -162 l62 -29 240 0 240 0 57 28 c69 34 138 100
167 161 12 24 35 101 52 170 17 70 33 125 35 123 3 -2 18 -59 34 -126 36 -148
63 -202 129 -264 94 -88 110 -92 391 -92 281 0 297 4 391 92 65 61 94 118 124
251 38 162 38 162 69 27 16 -66 37 -139 47 -163 28 -65 109 -145 182 -178 l62
-29 235 0 235 0 67 33 c73 36 134 96 167 165 11 23 45 144 76 268 l57 227 45
5 c49 5 85 27 117 71 29 39 29 133 0 172 -43 59 -68 69 -173 72 l-98 4 -6 96
c-15 242 -123 498 -272 647 -137 137 -268 150 -408 40 -172 -136 -317 -465
-317 -721 l0 -64 -54 0 -53 0 -7 97 c-13 167 -73 358 -158 500 -18 31 -64 89
-101 129 -155 167 -300 177 -453 32 -157 -149 -271 -410 -282 -650 l-5 -108
-47 0 -47 0 -7 97 c-13 167 -73 358 -158 500 -18 31 -64 89 -101 129 -118 127
-229 163 -342 110z m163 -115 c52 -26 141 -123 190 -207 76 -128 132 -320 132
-455 l0 -59 -382 0 -381 0 6 98 c3 53 16 133 27 177 42 162 158 354 252 422
70 49 98 54 156 24z m1097 5 c72 -30 166 -139 230 -266 59 -116 105 -298 105
-411 l0 -49 -381 0 -382 0 6 103 c14 256 159 536 322 621 37 20 56 20 100 2z
m1122 -7 c80 -39 184 -175 247 -327 34 -81 63 -206 70 -309 l6 -83 -380 0
-380 0 -1 23 c-6 187 48 374 155 536 71 106 160 179 220 181 11 0 39 -9 63
-21z m608 -879 l0 -35 -1775 0 -1775 0 -3 23 c-8 56 -141 52 1780 50 l1773 -3
0 -35z m-2409 -187 c-3 -10 -26 -103 -51 -208 -50 -207 -72 -257 -132 -297
-64 -44 -102 -50 -313 -46 -167 3 -200 6 -230 22 -45 24 -88 64 -106 99 -13
24 -114 413 -114 437 0 6 180 10 476 10 448 0 475 -1 470 -17z m1110 0 c-3
-10 -24 -92 -46 -183 -60 -242 -64 -253 -120 -303 -26 -24 -66 -49 -88 -55
-50 -15 -382 -16 -437 -1 -22 6 -54 22 -72 35 -68 51 -81 81 -138 306 -30 117
-55 214 -55 216 0 1 216 2 481 2 453 0 480 -1 475 -17z m1104 7 c0 -26 -94
-398 -107 -425 -22 -43 -62 -84 -108 -108 -36 -20 -58 -22 -238 -25 -226 -4
-270 5 -331 64 -51 50 -58 67 -110 279 -26 105 -49 198 -52 208 -5 16 22 17
470 17 318 0 476 -3 476 -10z"/>
</g>
</svg>
