<?xml version="1.0" standalone="no"?>
<!DOCTYPE svg PUBLIC "-//W3C//DTD SVG 20010904//EN"
 "http://www.w3.org/TR/2001/REC-SVG-20010904/DTD/svg10.dtd">
<svg version="1.0" xmlns="http://www.w3.org/2000/svg"
 width="512.000000pt" height="512.000000pt" viewBox="0 0 512.000000 512.000000"
 preserveAspectRatio="xMidYMid meet">

<g transform="translate(0.000000,512.000000) scale(0.100000,-0.100000)"
fill="#000000" stroke="none">
<path d="M2350 5104 c-328 -38 -544 -92 -799 -201 -447 -191 -851 -529 -1124
-939 -216 -326 -350 -686 -409 -1099 -18 -130 -15 -453 6 -605 86 -632 315
-1119 711 -1516 407 -408 937 -655 1543 -719 884 -94 1747 249 2275 904 357
443 560 1039 561 1651 1 389 -83 744 -259 1099 -379 762 -1083 1277 -1925
1406 -100 16 -498 29 -580 19z m500 -225 c528 -57 1072 -319 1418 -683 375
-395 587 -889 643 -1501 65 -717 -275 -1494 -864 -1974 -328 -266 -729 -441
-1167 -508 -158 -23 -482 -23 -640 0 -613 93 -1143 395 -1521 867 -367 458
-561 1075 -510 1620 71 749 375 1327 906 1724 487 365 1095 524 1735 455z"/>
<path d="M2004 4182 c-41 -32 -44 -53 -44 -264 l0 -203 -45 -24 c-56 -29 -110
-88 -139 -150 l-21 -46 -3 -1212 -2 -1212 29 -33 29 -33 752 0 752 0 29 33 29
33 -2 1212 -3 1212 -21 46 c-29 62 -83 121 -139 150 l-45 24 0 203 c0 211 -3
232 -44 264 -19 16 -64 18 -556 18 -492 0 -537 -2 -556 -18z m956 -317 l0
-135 -400 0 -400 0 0 135 0 135 400 0 400 0 0 -135z m145 -349 c56 -24 65 -55
65 -222 l0 -146 -37 28 c-122 93 -313 100 -430 15 -114 -83 -172 -83 -286 0
-117 85 -308 78 -430 -15 l-37 -28 0 146 c0 166 9 198 63 221 48 21 1042 21
1092 1z m-784 -503 c87 -60 153 -83 239 -83 86 0 152 23 239 83 45 31 62 37
105 37 45 0 62 -7 130 -49 43 -28 91 -53 107 -56 l29 -7 0 -869 0 -869 -610 0
-610 0 0 869 0 869 29 7 c16 3 64 28 107 56 68 42 85 49 130 49 43 0 60 -6
105 -37z"/>
</g>
</svg>
