<?xml version="1.0" standalone="no"?>
<!DOCTYPE svg PUBLIC "-//W3C//DTD SVG 20010904//EN"
 "http://www.w3.org/TR/2001/REC-SVG-20010904/DTD/svg10.dtd">
<svg version="1.0" xmlns="http://www.w3.org/2000/svg"
 width="512.000000pt" height="512.000000pt" viewBox="0 0 512.000000 512.000000"
 preserveAspectRatio="xMidYMid meet">

<g transform="translate(0.000000,512.000000) scale(0.100000,-0.100000)"
fill="#000000" stroke="none">
<path d="M2345 5114 c-306 -35 -495 -80 -725 -171 -765 -302 -1345 -963 -1543
-1758 -59 -236 -72 -348 -72 -625 0 -185 5 -273 18 -360 87 -565 334 -1055
729 -1450 407 -405 900 -647 1493 -732 118 -17 512 -17 630 0 726 103 1319
451 1749 1025 241 323 405 725 473 1157 25 161 25 557 0 720 -106 688 -457
1281 -1002 1690 -362 272 -789 441 -1251 495 -114 13 -413 18 -499 9z m425
-295 c889 -81 1659 -690 1939 -1533 215 -647 141 -1328 -206 -1901 -282 -465
-725 -815 -1244 -983 -709 -230 -1483 -96 -2083 361 -180 137 -389 364 -519
562 -71 110 -184 333 -227 452 -43 120 -95 324 -116 463 -25 159 -25 481 0
640 20 131 72 340 111 450 37 103 133 302 196 406 177 294 468 585 762 763
418 252 904 365 1387 320z"/>
<path d="M2395 4153 c-166 -23 -336 -99 -443 -196 -59 -55 -78 -67 -106 -67
-46 0 -195 -44 -259 -77 -189 -95 -354 -268 -431 -451 -30 -71 -51 -158 -61
-251 -6 -50 -15 -75 -40 -110 -77 -107 -144 -271 -166 -406 -14 -91 -7 -244
16 -330 38 -139 120 -278 222 -381 83 -83 148 -126 313 -209 74 -37 137 -69
139 -71 3 -2 -5 -17 -16 -32 -64 -86 -74 -164 -31 -247 58 -111 133 -152 353
-189 258 -44 354 -51 685 -51 320 0 402 6 645 46 176 29 243 51 299 100 119
105 132 218 40 345 -15 21 -12 23 131 98 164 85 207 113 282 180 104 94 197
244 245 396 20 65 23 95 22 220 0 128 -3 155 -28 234 -30 98 -90 225 -140 296
-27 38 -34 60 -44 140 -25 207 -105 364 -259 511 -128 122 -284 203 -449 233
-76 13 -81 16 -139 72 -95 93 -238 159 -414 189 -77 14 -291 18 -366 8z m400
-232 c103 -28 210 -86 249 -135 28 -34 31 -44 28 -98 -3 -88 -39 -329 -72
-491 -63 -315 -161 -655 -276 -965 -44 -119 -62 -181 -58 -198 14 -56 99 -83
143 -47 24 21 84 174 170 433 130 395 226 815 262 1148 8 71 16 112 24 112 6
0 36 -7 66 -16 219 -65 410 -254 463 -460 25 -99 21 -160 -18 -251 -134 -314
-315 -580 -578 -850 -174 -177 -182 -194 -134 -250 19 -21 33 -28 64 -28 34 0
49 9 108 60 217 191 485 548 625 834 30 60 57 110 60 110 4 1 20 -30 37 -68
107 -240 88 -466 -58 -663 -72 -98 -141 -147 -370 -262 -113 -57 -214 -114
-225 -126 -15 -16 -20 -36 -20 -74 0 -55 2 -59 87 -174 l32 -43 -21 -20 c-37
-37 -320 -82 -630 -101 -243 -14 -502 -1 -753 37 -232 35 -252 40 -272 65 -17
21 -16 23 39 96 46 61 57 84 61 123 8 87 -1 95 -240 214 -280 139 -357 205
-438 372 -52 108 -64 170 -57 296 5 106 28 193 76 287 21 41 41 55 41 29 0
-22 149 -286 229 -406 43 -64 120 -168 171 -230 109 -133 311 -338 348 -352
57 -22 122 23 122 84 0 25 -24 54 -148 181 -174 177 -243 262 -364 446 -88
132 -219 385 -254 486 -17 48 -17 57 -2 132 27 134 76 222 182 328 69 69 109
99 166 128 66 32 165 66 196 66 7 0 14 -31 18 -77 25 -285 119 -720 236 -1091
76 -244 171 -494 196 -519 52 -52 144 -13 144 61 0 19 -20 85 -44 148 -172
448 -310 1003 -356 1437 -11 97 -10 106 8 130 51 70 175 136 312 166 98 22
322 15 425 -14z"/>
</g>
</svg>
