<?xml version="1.0" standalone="no"?>
<!DOCTYPE svg PUBLIC "-//W3C//DTD SVG 20010904//EN"
 "http://www.w3.org/TR/2001/REC-SVG-20010904/DTD/svg10.dtd">
<svg version="1.0" xmlns="http://www.w3.org/2000/svg"
 width="512.000000pt" height="512.000000pt" viewBox="0 0 512.000000 512.000000"
 preserveAspectRatio="xMidYMid meet">

<g transform="translate(0.000000,512.000000) scale(0.100000,-0.100000)"
fill="#000000" stroke="none">
<path d="M2405 5108 c-219 -11 -455 -57 -670 -131 -786 -269 -1392 -905 -1629
-1707 -67 -228 -97 -446 -97 -710 0 -408 83 -767 261 -1125 383 -775 1114
-1297 1975 -1410 159 -21 471 -21 630 0 861 113 1594 636 1975 1410 182 368
261 713 261 1135 -1 398 -85 760 -261 1115 -420 852 -1264 1395 -2215 1428
-49 1 -153 -1 -230 -5z m495 -203 c944 -135 1722 -836 1955 -1760 54 -216 69
-342 69 -585 0 -243 -15 -369 -69 -585 -211 -838 -869 -1496 -1709 -1710 -214
-54 -342 -69 -586 -69 -244 0 -372 15 -586 69 -668 170 -1233 627 -1534 1240
-117 238 -189 469 -226 720 -25 167 -25 506 -1 670 113 759 577 1414 1249
1764 271 141 564 229 878 261 121 12 425 4 560 -15z"/>
<path d="M2512 4088 c-12 -16 -158 -636 -150 -643 3 -3 95 -4 204 -3 l200 3
-72 319 c-42 185 -78 322 -86 327 -20 13 -84 11 -96 -3z"/>
<path d="M2265 3336 c-40 -17 -82 -67 -95 -114 -5 -20 -10 -74 -10 -119 l0
-83 400 0 400 0 0 103 c0 121 -20 167 -85 204 -39 22 -48 23 -310 22 -202 0
-278 -3 -300 -13z"/>
<path d="M2008 2901 c-75 -30 -124 -75 -160 -149 l-33 -67 -3 -683 c-3 -759
-3 -761 61 -851 42 -59 113 -107 180 -121 36 -7 212 -10 538 -8 l484 3 57 28
c70 34 131 101 155 170 17 48 18 103 18 757 l0 705 -26 56 c-33 70 -87 124
-153 155 l-51 24 -510 -1 c-471 0 -514 -1 -557 -18z m1046 -271 l26 -10 0
-643 c0 -487 -3 -646 -12 -655 -9 -9 -135 -12 -504 -12 -434 0 -494 2 -508 16
-14 14 -16 86 -16 649 l0 634 22 15 c20 14 83 16 495 16 282 0 482 -4 497 -10z"/>
<path d="M2130 1970 l0 -570 430 0 430 0 0 570 0 570 -430 0 -430 0 0 -570z"/>
</g>
</svg>
