<?xml version="1.0" standalone="no"?>
<!DOCTYPE svg PUBLIC "-//W3C//DTD SVG 20010904//EN"
 "http://www.w3.org/TR/2001/REC-SVG-20010904/DTD/svg10.dtd">
<svg version="1.0" xmlns="http://www.w3.org/2000/svg"
 width="512.000000pt" height="512.000000pt" viewBox="0 0 512.000000 512.000000"
 preserveAspectRatio="xMidYMid meet">

<g transform="translate(0.000000,512.000000) scale(0.100000,-0.100000)"
fill="#000000" stroke="none">
<path d="M2420 4964 c-539 -46 -965 -209 -1365 -522 -104 -82 -330 -314 -413
-424 -259 -346 -417 -738 -473 -1178 -18 -137 -15 -440 5 -585 43 -301 123
-552 262 -815 116 -219 249 -397 438 -585 377 -375 844 -605 1381 -681 145
-20 448 -23 585 -5 463 59 864 226 1225 509 90 71 306 287 377 377 346 441
522 949 521 1505 -2 552 -185 1071 -529 1500 -84 105 -263 285 -367 369 -341
276 -758 456 -1192 515 -113 15 -375 27 -455 20z m495 -193 c239 -40 426 -100
640 -206 582 -287 1017 -825 1175 -1454 50 -198 64 -324 64 -551 0 -228 -14
-353 -65 -554 -198 -788 -828 -1417 -1618 -1616 -198 -50 -324 -64 -551 -64
-227 0 -353 14 -550 64 -793 200 -1422 828 -1620 1619 -52 208 -64 315 -64
551 0 236 12 343 64 551 198 790 829 1421 1619 1619 109 27 268 54 371 64 108
10 418 -4 535 -23z"/>
<path d="M2035 3414 c-362 -38 -704 -158 -995 -352 -129 -85 -141 -95 -368
-295 -101 -90 -185 -172 -188 -184 -14 -53 -17 -50 316 -342 231 -203 478
-344 760 -436 471 -152 982 -137 1440 42 146 57 237 105 487 259 l201 125 388
-156 c214 -85 399 -155 412 -155 30 0 72 42 72 72 0 13 -53 146 -117 296
l-116 272 116 273 c64 149 117 282 117 295 0 30 -42 72 -72 72 -13 0 -198 -70
-412 -155 l-388 -156 -204 126 c-304 189 -433 250 -671 321 -183 54 -332 75
-548 79 -104 2 -208 1 -230 -1z m393 -165 c218 -23 440 -85 633 -176 138 -65
564 -328 590 -364 63 -89 63 -209 0 -298 -26 -36 -452 -299 -590 -364 -255
-120 -553 -187 -834 -187 l-105 0 23 79 c59 202 85 393 85 621 0 228 -26 419
-85 621 l-23 79 105 0 c57 0 147 -5 201 -11z m-449 -71 c61 -185 91 -388 91
-618 0 -230 -30 -433 -91 -618 l-21 -64 -52 7 c-94 13 -310 72 -416 114 -251
100 -471 249 -740 500 l-65 61 65 61 c121 113 305 263 395 322 186 121 433
224 654 272 161 35 156 36 180 -37z m2321 -275 c-15 -38 -53 -126 -84 -197
-31 -72 -56 -137 -56 -146 0 -9 38 -103 84 -210 46 -107 82 -196 81 -198 -2
-3 -506 196 -512 202 -2 1 7 27 19 57 31 77 31 221 0 298 -12 30 -21 56 -19
57 4 4 502 203 509 204 4 0 -6 -30 -22 -67z"/>
<path d="M2585 2775 c-19 -18 -25 -35 -25 -66 0 -94 -55 -235 -124 -318 -23
-28 -36 -53 -36 -72 0 -41 40 -79 81 -79 91 0 239 286 239 462 0 60 -31 98
-80 98 -19 0 -40 -9 -55 -25z"/>
<path d="M2934 2780 c-30 -12 -54 -49 -54 -83 0 -82 -59 -228 -124 -306 -43
-52 -47 -91 -11 -126 40 -41 80 -34 132 23 79 85 163 293 163 403 0 62 -56
109 -106 89z"/>
<path d="M3254 2780 c-30 -12 -54 -49 -54 -83 0 -82 -59 -228 -124 -306 -43
-52 -47 -91 -11 -126 40 -41 80 -34 132 23 79 85 163 293 163 403 0 62 -56
109 -106 89z"/>
<path d="M1375 2706 c-101 -44 -125 -178 -46 -257 65 -65 157 -65 222 0 124
124 -15 327 -176 257z"/>
</g>
</svg>
