<?xml version="1.0" standalone="no"?>
<!DOCTYPE svg PUBLIC "-//W3C//DTD SVG 20010904//EN"
 "http://www.w3.org/TR/2001/REC-SVG-20010904/DTD/svg10.dtd">
<svg version="1.0" xmlns="http://www.w3.org/2000/svg"
 width="512.000000pt" height="512.000000pt" viewBox="0 0 512.000000 512.000000"
 preserveAspectRatio="xMidYMid meet">

<g transform="translate(0.000000,512.000000) scale(0.100000,-0.100000)"
fill="#000000" stroke="none">
<path d="M2370 5114 c-19 -2 -78 -9 -130 -15 -548 -62 -1083 -325 -1489 -730
-405 -406 -652 -907 -732 -1489 -18 -125 -18 -515 0 -640 80 -582 327 -1083
732 -1489 658 -657 1607 -906 2504 -654 929 260 1646 1043 1819 1987 156 845
-103 1682 -705 2285 -398 398 -880 639 -1449 726 -100 15 -472 28 -550 19z
m535 -219 c505 -78 959 -308 1320 -670 189 -188 326 -378 445 -614 112 -221
188 -462 226 -716 25 -165 26 -504 1 -665 -26 -164 -72 -346 -124 -485 -271
-727 -885 -1281 -1628 -1470 -213 -54 -341 -69 -585 -69 -238 0 -359 13 -563
64 -430 107 -795 315 -1112 634 -297 298 -507 667 -610 1071 -56 218 -69 332
-69 585 0 254 13 368 69 585 249 972 1081 1674 2095 1769 91 8 438 -4 535 -19z"/>
<path d="M2033 4405 c-146 -32 -279 -130 -378 -279 -125 -188 -185 -427 -172
-686 10 -206 27 -226 196 -243 210 -21 436 17 616 102 177 85 290 187 357 326
200 416 -167 878 -619 780z m268 -219 c93 -44 160 -121 190 -217 60 -192 -38
-368 -270 -484 -100 -50 -237 -83 -379 -91 -160 -9 -162 -8 -162 99 0 354 166
661 387 717 64 16 174 5 234 -24z"/>
<path d="M3177 4271 c-121 -17 -140 -56 -141 -291 0 -237 34 -391 125 -559
113 -210 275 -335 469 -363 325 -48 629 217 630 548 0 76 -31 200 -67 265 -93
172 -322 323 -572 380 -97 22 -348 33 -444 20z m333 -205 c240 -37 438 -154
512 -304 30 -61 33 -75 33 -157 -1 -77 -5 -98 -28 -145 -74 -154 -242 -236
-403 -197 -121 30 -214 115 -294 268 -61 117 -100 294 -100 449 0 101 0 100
99 100 47 0 129 -7 181 -14z"/>
<path d="M2825 3204 c-172 -20 -294 -54 -410 -111 -257 -129 -395 -325 -395
-561 1 -360 340 -622 690 -533 46 11 109 36 140 54 117 68 244 225 309 381 66
159 98 380 81 568 -9 111 -26 160 -59 178 -39 20 -258 35 -356 24z m183 -200
c27 -5 30 -11 36 -55 8 -59 -9 -234 -30 -315 -51 -196 -163 -357 -291 -420
-51 -25 -69 -29 -148 -29 -76 0 -99 4 -146 26 -77 36 -130 87 -169 161 -63
118 -51 265 30 377 64 87 217 181 362 221 113 31 287 48 356 34z"/>
<path d="M1128 3024 c-196 -47 -360 -212 -408 -409 -17 -70 -14 -228 6 -316
50 -227 214 -476 422 -641 100 -79 124 -79 224 1 400 320 556 822 352 1130
-130 195 -370 290 -596 235z m283 -217 c66 -32 142 -109 170 -173 66 -149 26
-369 -102 -564 -59 -89 -197 -240 -219 -240 -21 0 -160 152 -215 235 -93 139
-135 265 -136 405 -1 177 92 305 261 361 14 5 61 7 105 5 62 -2 93 -9 136 -29z"/>
<path d="M3739 2679 c-268 -63 -471 -325 -535 -690 -12 -70 -15 -135 -12 -254
6 -236 18 -251 196 -264 493 -35 904 177 1006 518 20 69 21 217 1 291 -51 192
-207 346 -400 395 -63 16 -197 18 -256 4z m273 -222 c198 -97 262 -353 133
-529 -62 -85 -187 -168 -320 -213 -90 -30 -194 -45 -317 -45 l-121 0 6 148 c3
101 11 171 26 224 55 211 183 380 324 430 77 27 196 21 269 -15z"/>
<path d="M2190 1795 c-116 -29 -218 -90 -289 -172 -57 -65 -117 -193 -132
-277 -40 -237 86 -480 305 -586 46 -22 111 -44 150 -51 132 -22 316 7 472 76
148 66 359 238 463 377 75 100 61 138 -114 313 -153 154 -328 260 -503 306
-100 27 -277 34 -352 14z m325 -215 c140 -43 276 -131 399 -257 l66 -68 -78
-78 c-170 -173 -390 -277 -583 -277 -176 0 -334 143 -355 321 -18 155 86 316
240 371 67 25 211 19 311 -12z"/>
</g>
</svg>
