<?xml version="1.0" standalone="no"?>
<!DOCTYPE svg PUBLIC "-//W3C//DTD SVG 20010904//EN"
 "http://www.w3.org/TR/2001/REC-SVG-20010904/DTD/svg10.dtd">
<svg version="1.0" xmlns="http://www.w3.org/2000/svg"
 width="512.000000pt" height="512.000000pt" viewBox="0 0 512.000000 512.000000"
 preserveAspectRatio="xMidYMid meet">

<g transform="translate(0.000000,512.000000) scale(0.100000,-0.100000)"
fill="#000000" stroke="none">
<path d="M2260 5105 c-763 -92 -1436 -515 -1853 -1162 -443 -686 -529 -1550
-232 -2311 234 -598 679 -1083 1250 -1363 196 -96 314 -139 509 -189 236 -59
356 -74 621 -74 234 -1 318 7 510 45 486 97 944 341 1295 689 388 384 630 852
726 1400 32 181 43 484 25 665 -123 1210 -1054 2159 -2257 2300 -154 18 -446
18 -594 0z m635 -300 c726 -113 1340 -551 1678 -1195 164 -311 245 -627 254
-991 8 -288 -25 -524 -108 -771 -122 -367 -305 -657 -585 -928 -175 -169 -338
-286 -549 -392 -323 -163 -651 -241 -1015 -242 -274 0 -467 30 -720 113 -336
111 -613 278 -866 523 -392 380 -629 866 -685 1407 -17 161 -7 453 21 611 115
658 503 1223 1080 1570 267 161 616 277 930 309 128 13 441 5 565 -14z"/>
<path d="M2025 3993 c-168 -23 -352 -120 -482 -252 -142 -143 -243 -364 -274
-598 -16 -123 -6 -391 20 -518 88 -430 345 -854 685 -1129 473 -383 1012 -479
1462 -261 154 75 300 230 368 393 80 190 77 444 -9 637 -88 200 -287 403 -514
528 -92 50 -168 120 -204 185 -15 27 -42 107 -61 178 -76 286 -183 485 -341
633 -172 161 -414 237 -650 204z m259 -223 c43 -11 100 -32 128 -47 105 -57
229 -195 297 -331 l22 -43 -48 -53 c-156 -170 -188 -424 -80 -631 44 -84 155
-194 237 -233 71 -35 179 -62 250 -62 70 0 179 27 245 60 l60 30 71 -74 c123
-129 187 -281 187 -451 0 -152 -49 -277 -153 -389 -75 -80 -133 -118 -241
-157 -114 -42 -211 -59 -334 -59 -238 0 -457 73 -696 231 -119 80 -347 306
-442 439 -85 120 -195 342 -242 488 -95 302 -101 628 -14 853 126 326 445 508
753 429z m541 -715 c43 -188 151 -328 331 -430 74 -42 75 -44 52 -57 -14 -8
-58 -13 -118 -13 -82 0 -103 4 -150 26 -30 15 -76 45 -102 68 -126 112 -156
324 -67 470 25 42 31 36 54 -64z"/>
</g>
</svg>
