<?xml version="1.0" standalone="no"?>
<!DOCTYPE svg PUBLIC "-//W3C//DTD SVG 20010904//EN"
 "http://www.w3.org/TR/2001/REC-SVG-20010904/DTD/svg10.dtd">
<svg version="1.0" xmlns="http://www.w3.org/2000/svg"
 width="512.000000pt" height="512.000000pt" viewBox="0 0 512.000000 512.000000"
 preserveAspectRatio="xMidYMid meet">

<g transform="translate(0.000000,512.000000) scale(0.100000,-0.100000)"
fill="#000000" stroke="none">
<path d="M2230 5075 c-742 -90 -1392 -488 -1805 -1105 -86 -128 -215 -383
-270 -534 -70 -190 -124 -438 -145 -661 -59 -638 148 -1312 560 -1824 101
-125 319 -337 442 -429 199 -149 445 -284 672 -367 138 -51 376 -110 531 -131
159 -23 520 -25 665 -5 586 81 1096 333 1491 738 385 394 605 846 701 1438 8
52 13 173 13 345 -1 285 -14 398 -70 619 -158 623 -535 1153 -1079 1515 -325
217 -731 362 -1138 406 -129 13 -437 11 -568 -5z m605 -256 c392 -48 766 -199
1095 -443 122 -90 356 -324 446 -446 244 -329 391 -693 445 -1100 7 -52 12
-174 12 -270 0 -265 -34 -476 -118 -728 -250 -750 -901 -1331 -1675 -1496
-182 -39 -292 -50 -490 -49 -497 2 -956 156 -1360 457 -123 91 -357 325 -446
446 -244 329 -392 696 -445 1100 -6 52 -12 174 -12 270 0 96 6 218 12 270 100
775 574 1438 1266 1775 396 193 837 267 1270 214z"/>
<path d="M2442 3910 c-78 -26 -157 -89 -200 -160 -42 -71 -54 -116 -53 -209
l0 -76 -111 -71 -111 -72 -43 33 c-68 52 -126 70 -229 70 -78 0 -98 -4 -152
-29 -152 -70 -242 -238 -213 -398 25 -136 113 -246 233 -289 l37 -13 0 -136 0
-135 -56 -24 c-72 -31 -142 -100 -180 -176 -26 -54 -29 -70 -29 -160 0 -88 3
-107 27 -157 34 -73 113 -152 184 -185 79 -36 189 -42 269 -15 l60 21 156 -90
156 -90 6 -49 c21 -176 208 -323 391 -307 173 14 320 145 343 306 l8 52 155
89 155 90 55 -21 c76 -29 192 -24 272 13 76 35 148 104 183 175 23 46 29 75
33 144 5 100 -10 159 -60 234 -36 54 -133 130 -178 140 l-30 7 0 138 0 138 28
7 c40 10 117 61 153 103 18 20 46 65 62 101 27 57 31 77 30 146 0 107 -28 177
-99 254 -78 85 -150 116 -269 116 -103 0 -161 -18 -231 -71 l-44 -34 -110 73
-109 72 0 75 c1 93 -5 120 -44 193 -82 156 -274 232 -445 177z m-108 -654 c69
-52 128 -71 226 -71 98 0 157 19 226 71 l44 34 109 -73 109 -72 4 -95 c2 -81
7 -104 32 -155 38 -76 108 -145 180 -176 l56 -24 0 -135 0 -135 -56 -24 c-73
-32 -148 -105 -182 -178 -34 -75 -43 -204 -17 -273 9 -25 18 -52 21 -60 3 -11
-26 -32 -97 -73 l-102 -57 -49 54 c-33 37 -71 66 -116 88 -61 30 -74 33 -162
33 -88 0 -101 -3 -162 -33 -44 -21 -84 -51 -117 -88 l-50 -55 -98 56 c-54 31
-100 58 -101 60 -2 2 6 31 18 64 32 86 26 204 -15 287 -37 75 -107 144 -179
175 l-56 24 0 135 0 135 57 24 c70 31 142 102 179 177 23 47 29 75 33 156 l6
99 105 69 c58 38 106 69 107 69 2 1 23 -14 47 -33z"/>
</g>
</svg>
